<svg xmlns="http://www.w3.org/2000/svg" viewBox="0 0 1254 1254">
  <path
    fill="#000"
    fill-rule="evenodd"
    d="M294.107422,255.897797 C427.465424,294.545502 520.463745,381.154419 587.769348,499.384827 C587.769348,488.816589 587.851013,478.247498 587.743713,467.680359 C587.657166,459.150696 587.799438,450.767395 591.552185,442.760071 C598.570801,427.784485 613.526855,418.266541 629.691101,419.507660 C648.817200,420.976196 663.212708,433.433960 666.872681,451.047668 C668.009155,456.517242 667.932678,462.281738 668.020203,467.917267 C668.185791,478.577637 668.067993,489.242401 668.067993,501.503510 C671.880066,494.807465 674.945007,489.294678 678.128418,483.851196 C728.830627,397.152313 797.016296,328.685059 887.672913,283.960724 C928.892944,263.625336 972.370422,250.103577 1018.082886,244.558899 C1039.349487,241.979370 1060.703247,241.663589 1081.242798,249.422165 C1110.256226,260.381592 1126.011475,282.322479 1132.046021,311.941315 C1136.764160,335.099518 1135.009888,358.415741 1132.635620,381.631134 C1128.234131,424.669312 1119.759277,466.923645 1106.176025,508.031921 C1094.158569,544.401550 1078.894897,579.204529 1055.587402,610.066162 C1031.763550,641.611633 1000.305969,660.867004 962.148193,670.060364 C933.752380,676.901611 905.125427,676.873291 876.255798,674.618286 C855.032104,672.960632 833.746887,672.064880 812.479797,671.018677 C809.548767,670.874451 806.536255,671.684509 803.608765,672.284119 C782.390076,676.630127 775.000488,695.818542 788.923889,712.581116 C795.963196,721.055908 804.701599,728.343201 813.496521,735.092529 C836.486328,752.735046 860.391602,769.205994 883.056946,787.243591 C903.549927,803.552368 920.315796,823.278015 931.820068,847.257507 C962.346436,910.886353 934.118225,1000.652588 848.984192,1021.975952 C807.829529,1032.284058 768.246155,1026.277588 730.544250,1007.825073 C683.510254,984.805237 652.131531,947.046143 631.192566,899.847961 C630.210449,897.634094 629.310303,895.383789 628.312561,893.009033 C622.522522,904.296509 617.414612,915.449402 611.279236,926.005188 C586.452026,968.719849 551.611450,1000.033508 504.601471,1016.412842 C465.621063,1029.994507 426.251282,1031.668823 387.480988,1015.448853 C316.040039,985.560608 296.730957,904.293091 324.028473,847.184692 C336.403137,821.295959 355.119385,800.667542 377.337006,783.254944 C398.697998,766.513611 421.093903,751.099060 442.759308,734.736328 C450.566864,728.839783 457.839905,722.156067 464.859772,715.321045 C470.504852,709.824524 473.630280,702.667664 473.844086,694.720581 C474.108398,684.893494 466.973999,675.787781 455.517639,673.237976 C446.713867,671.278503 437.377594,670.509216 428.362518,670.947327 C408.423370,671.916504 388.532043,673.916504 368.631226,675.613403 C346.231415,677.523315 324.558044,672.645935 302.823700,668.575134 C292.700806,666.679138 282.715607,664.027893 272.697235,661.598328 C242.159927,654.192749 219.717667,635.084656 201.057159,611.024414 C176.958801,579.953003 161.640762,544.345093 149.665939,507.254211 C132.276016,453.390686 121.724899,398.223999 121.279800,341.494873 C121.180389,328.825409 122.867615,315.758759 126.142624,303.519958 C134.907532,270.765198 156.943146,251.442459 190.184372,245.130615 C212.832870,240.830124 235.355301,243.634460 257.702942,247.628143 C269.807068,249.791229 281.717560,253.037827 294.107422,255.897797 M230.151550,527.314331 C233.798492,534.423889 237.260086,541.635986 241.123901,548.625671 C259.754761,582.329529 287.490997,602.582581 326.305420,607.492859 C348.101898,610.250244 369.502594,607.483643 391.026672,605.498962 C413.419495,603.434204 435.799683,601.056152 458.296112,604.003540 C478.426483,606.640808 496.798370,613.719543 511.933228,627.427063 C545.545654,657.869507 551.825073,707.640625 527.466370,745.866333 C516.611328,762.900879 501.820984,775.992188 485.918091,787.963074 C465.427643,803.387146 444.530518,818.280701 424.273926,834.002319 C409.773071,845.256775 396.162567,857.632202 387.670349,874.438293 C369.920227,909.565857 390.246307,950.257629 428.758301,956.648926 C451.184021,960.370544 472.571045,956.492432 492.978699,946.977539 C523.078003,932.943909 543.234985,909.068420 557.564575,879.917236 C579.162720,835.979309 585.781860,789.029419 584.321960,740.616943 C582.875671,692.653198 574.441833,645.981689 557.708313,600.935425 C523.247742,508.168182 468.001038,431.083008 385.679230,374.806610 C339.094788,342.960815 288.069794,321.676178 231.934982,313.807343 C222.321594,312.459778 212.379028,312.756805 202.637985,313.257141 C195.465744,313.625488 191.386200,318.678864 190.273422,325.667633 C189.490875,330.582336 188.876755,335.579803 188.829880,340.546417 C188.567612,368.320496 192.660812,395.642395 198.032043,422.784302 C205.094116,458.470337 214.906769,493.340363 230.151550,527.314331 M1007.827576,316.252411 C946.662170,329.033508 891.949280,355.403473 843.327271,394.520569 C795.133362,433.293304 757.092529,480.451935 727.870605,534.842834 C685.616089,613.491455 665.608093,697.065918 673.022339,786.474670 C676.024780,822.680908 685.154358,857.392395 703.179138,889.214050 C724.770203,927.331665 755.861328,952.409241 800.697021,957.419067 C816.890991,959.228516 832.751709,957.664795 847.240601,949.500610 C874.283020,934.262634 882.685730,896.891907 865.472900,869.571594 C858.193787,858.018250 849.044678,848.030212 838.385620,839.715210 C817.247620,823.225586 795.674805,807.291565 774.211853,791.221069 C758.828064,779.702393 744.040955,767.592529 732.496460,751.991516 C691.422180,696.484497 720.364075,620.022766 787.884888,605.746765 C813.394409,600.353210 838.940857,603.097900 864.490967,605.437317 C886.846436,607.484131 909.108704,610.627869 931.692688,607.129883 C960.611694,602.650696 984.817810,590.473022 1002.683472,566.760132 C1017.068726,547.666687 1027.120728,526.318909 1035.304565,504.046173 C1050.295166,463.248627 1060.059082,421.180847 1064.760254,377.981873 C1066.541382,361.615723 1068.491577,345.205688 1066.053711,328.686127 C1064.433594,317.709442 1060.843384,312.859985 1049.834595,312.846222 C1036.113159,312.829041 1022.389160,314.934875 1007.827576,316.252411 Z"
  />
  <path
    fill="#000"
    d="M664.798950,333.261688 C680.266235,359.870453 665.320251,392.551300 637.406067,398.937714 C618.192444,403.333527 598.161926,393.695160 589.696411,376.264771 C580.507446,357.344818 584.948853,335.152130 600.508728,322.238403 C621.013062,305.221100 649.814392,310.033722 664.798950,333.261688 Z"
  />
</svg>
